<?xml version="1.0" encoding="utf-8"?>
<!-- Generator: Adobe Illustrator 27.6.1, SVG Export Plug-In . SVG Version: 6.00 Build 0)  -->
<svg version="1.1" id="Livello_1" xmlns="http://www.w3.org/2000/svg" xmlns:xlink="http://www.w3.org/1999/xlink" x="0px" y="0px"
	 viewBox="0 0 841.89 595.28" style="enable-background:new 0 0 841.89 595.28;" xml:space="preserve">
<style type="text/css">
	.st0{fill:#22C55E;}
</style>
<g>
	<g>
		<path class="st0" d="M326.47,248.97v29.53c0,7.75-6.28,14.03-14.03,14.03l0,0v22.61c0,13.07-10.59,23.65-23.63,23.65h-1.71
			c-1.49,0-2.7-1.21-2.7-2.7v-39.5c0-2.24-1.82-4.06-4.06-4.06h-0.01c-2.24,0-4.06,1.82-4.06,4.06v6.55
			c0,13.06-10.59,23.64-23.63,23.64h-1.71c-1.49,0-2.7-1.21-2.7-2.7v-27.49c0-2.24-1.82-4.06-4.06-4.06h-0.1
			c-2.16,0-3.87,1.72-3.98,3.87c-0.67,12.46-11.01,22.36-23.62,22.36h-1.71c-1.49,0-2.7-1.21-2.7-2.7v-18.04
			c0-3.03,2.45-5.48,5.48-5.48h6.16c1.31,0,2.36-1.02,2.47-2.32c1.03-12.11,11.19-21.62,23.55-21.62h1.71c1.49,0,2.7,1.21,2.7,2.7
			v17.17c0,2.24,1.82,4.06,4.06,4.06h0c2.24,0,4.06-1.82,4.06-4.06v-6.55c0-13.07,10.59-23.65,23.64-23.65h1.7
			c1.49,0,2.7,1.21,2.7,2.7v27.5c0,2.24,1.82,4.06,4.06,4.06h0.01c2.24,0,4.06-1.82,4.06-4.06V269.9
			c0-13.06,10.58-23.64,23.64-23.64h1.7C325.26,246.26,326.47,247.47,326.47,248.97z"/>
	</g>
	<g>
		<path d="M361.82,296.01c-2.85-1.07-5.28-2.41-7.28-4.02c-2-1.61-3.55-3.52-4.63-5.73c-1.09-2.21-1.63-4.73-1.63-7.59
			c0-2.88,0.59-5.55,1.78-7.99c1.19-2.44,2.8-4.55,4.84-6.31c2.04-1.76,4.4-3.14,7.1-4.12c2.7-0.98,5.56-1.48,8.58-1.48
			c2.04,0,4.05,0.2,6.03,0.61c1.99,0.41,3.85,1.01,5.6,1.81c1.75,0.8,3.34,1.8,4.79,3c1.44,1.21,2.64,2.61,3.59,4.2
			c0.34,0.58,0.54,1.17,0.61,1.78c0.07,0.61,0.03,1.21-0.1,1.81c-0.14,0.59-0.35,1.15-0.64,1.65c-0.29,0.51-0.62,0.93-0.99,1.27
			c-0.44,0.44-0.97,0.8-1.58,1.07c-0.61,0.27-1.27,0.45-1.96,0.53c-0.7,0.09-1.42,0.04-2.16-0.13c-0.75-0.17-1.48-0.49-2.19-0.97
			c-0.92-0.64-1.73-1.22-2.44-1.73s-1.46-0.93-2.24-1.27c-0.78-0.34-1.65-0.59-2.62-0.76c-0.97-0.17-2.13-0.25-3.49-0.25
			c-1.49,0-2.84,0.18-4.05,0.53c-1.21,0.36-2.24,0.86-3.11,1.5c-0.87,0.65-1.53,1.4-1.99,2.27c-0.46,0.87-0.69,1.82-0.69,2.88
			c0,1.29,0.33,2.33,0.99,3.13c0.66,0.8,1.61,1.48,2.85,2.04c1.24,0.56,2.75,1.04,4.53,1.43c1.78,0.39,3.79,0.81,6.03,1.25
			c2.31,0.51,4.56,1.21,6.77,2.11c2.21,0.9,4.17,2.06,5.91,3.49c1.73,1.43,3.13,3.17,4.2,5.24c1.07,2.07,1.6,4.55,1.6,7.43
			c0,2.82-0.59,5.47-1.78,7.94c-1.19,2.48-2.83,4.63-4.91,6.47s-4.56,3.28-7.41,4.35c-2.85,1.07-5.96,1.6-9.32,1.6
			c-2.61,0-5.12-0.34-7.51-1.02s-4.57-1.6-6.54-2.75c-1.97-1.15-3.7-2.5-5.19-4.05c-1.49-1.54-2.65-3.18-3.46-4.91
			c-0.48-1.02-0.74-1.97-0.79-2.85c-0.05-0.88,0.05-1.7,0.31-2.44c0.25-0.75,0.64-1.4,1.15-1.96c0.51-0.56,1.1-1.03,1.78-1.4
			c1.59-0.85,3.08-1.03,4.46-0.53c1.37,0.49,2.79,1.64,4.25,3.44c1.43,1.93,3.11,3.39,5.04,4.38c1.94,0.99,4.26,1.48,6.98,1.48
			c1.29,0,2.55-0.16,3.79-0.48c1.24-0.32,2.35-0.78,3.33-1.38c0.98-0.59,1.77-1.32,2.37-2.19c0.59-0.87,0.89-1.86,0.89-2.98
			c0-1.36-0.31-2.44-0.92-3.23c-0.61-0.8-1.39-1.43-2.34-1.91c-0.95-0.47-2.01-0.83-3.18-1.07c-1.17-0.24-2.32-0.46-3.44-0.66
			C367.86,297.92,364.67,297.08,361.82,296.01z"/>
		<path d="M413.85,318.18c0,0.88-0.16,1.7-0.48,2.44c-0.32,0.75-0.77,1.4-1.35,1.96c-0.58,0.56-1.25,1-2.01,1.32
			c-0.76,0.32-1.59,0.48-2.47,0.48c-0.88,0-1.71-0.16-2.47-0.48c-0.76-0.32-1.43-0.76-2.01-1.32c-0.58-0.56-1.03-1.21-1.35-1.96
			c-0.32-0.75-0.48-1.56-0.48-2.44v-52.75c0-0.88,0.16-1.7,0.48-2.44c0.32-0.75,0.77-1.4,1.35-1.96c0.58-0.56,1.25-1,2.01-1.32
			c0.76-0.32,1.59-0.48,2.47-0.48c0.88,0,1.71,0.16,2.47,0.48c0.76,0.32,1.43,0.76,2.01,1.32c0.58,0.56,1.03,1.21,1.35,1.96
			c0.32,0.75,0.48,1.56,0.48,2.44V318.18z"/>
		<path d="M421.14,300.72c0-3.36,0.64-6.51,1.94-9.44c1.29-2.94,3.04-5.51,5.24-7.71c2.21-2.21,4.78-3.95,7.71-5.22
			c2.94-1.27,6.07-1.91,9.39-1.91c3.29,0,6.4,0.63,9.32,1.88c2.92,1.26,5.47,2.96,7.66,5.12c2.19,2.16,3.93,4.69,5.22,7.61
			c1.29,2.92,1.97,6.03,2.04,9.32v17.57c0,0.88-0.17,1.72-0.51,2.52c-0.34,0.8-0.8,1.49-1.37,2.06c-0.58,0.58-1.26,1.04-2.04,1.37
			c-0.78,0.34-1.63,0.51-2.55,0.51c-1.29,0-2.41-0.31-3.36-0.94c-0.95-0.63-1.66-1.45-2.14-2.47c-1.83,1.22-3.78,2.19-5.83,2.9
			s-4.2,1.07-6.44,1.07c-3.33,0-6.46-0.64-9.39-1.91c-2.94-1.27-5.51-3-7.71-5.19c-2.21-2.19-3.95-4.76-5.24-7.71
			C421.78,307.18,421.14,304.04,421.14,300.72z M433.76,300.74c0,1.6,0.31,3.11,0.92,4.52c0.61,1.41,1.45,2.64,2.5,3.7
			c1.05,1.06,2.29,1.88,3.7,2.48c1.41,0.59,2.92,0.89,4.52,0.89c1.63,0,3.16-0.3,4.57-0.89c1.41-0.6,2.64-1.42,3.67-2.48
			c1.04-1.05,1.86-2.29,2.48-3.7c0.61-1.41,0.92-2.92,0.92-4.52c0-1.63-0.31-3.15-0.92-4.54c-0.61-1.39-1.44-2.62-2.48-3.67
			c-1.04-1.06-2.26-1.88-3.67-2.48s-2.93-0.89-4.57-0.89c-1.6,0-3.11,0.3-4.52,0.89s-2.64,1.42-3.7,2.48
			c-1.06,1.05-1.89,2.28-2.5,3.67C434.07,297.6,433.76,299.11,433.76,300.74z"/>
		<path d="M486.26,276.38c1.43,0,2.67,0.42,3.74,1.27c1.07,0.85,1.79,1.92,2.16,3.21c1.7-1.39,3.5-2.48,5.41-3.26
			c1.9-0.78,3.88-1.17,5.92-1.17c2.99,0,5.73,0.61,8.21,1.83c2.48,1.22,4.62,2.89,6.4,5.02c1.79,2.12,3.17,4.62,4.16,7.48
			c0.99,2.87,1.5,5.93,1.53,9.19v18.38c0,0.88-0.17,1.7-0.51,2.44c-0.34,0.75-0.79,1.39-1.36,1.93c-0.56,0.54-1.24,0.98-2.02,1.3
			c-0.79,0.32-1.6,0.48-2.45,0.48c-0.85,0-1.66-0.16-2.43-0.48s-1.43-0.75-1.99-1.3c-0.56-0.54-1.01-1.19-1.35-1.93
			c-0.34-0.75-0.51-1.56-0.51-2.44V300c-0.03-1.56-0.26-3.01-0.69-4.35c-0.42-1.34-1.03-2.5-1.81-3.49
			c-0.78-0.98-1.73-1.76-2.85-2.34c-1.12-0.58-2.38-0.87-3.77-0.87s-2.67,0.25-3.82,0.76c-1.15,0.51-2.16,1.22-3,2.14
			c-0.85,0.92-1.52,2-2.01,3.26s-0.76,2.63-0.79,4.12v18.89c0,0.88-0.16,1.7-0.48,2.44c-0.32,0.75-0.77,1.41-1.35,1.99
			s-1.25,1.03-2.01,1.35c-0.76,0.32-1.57,0.48-2.42,0.48c-0.88,0-1.71-0.16-2.47-0.48c-0.76-0.32-1.43-0.77-2.01-1.35
			c-0.58-0.58-1.04-1.24-1.38-1.99c-0.34-0.75-0.51-1.56-0.51-2.44v-35.49c0-0.85,0.17-1.65,0.51-2.42c0.34-0.76,0.8-1.43,1.38-2.01
			c0.58-0.58,1.26-1.03,2.06-1.35C484.53,276.54,485.37,276.38,486.26,276.38z"/>
		<path d="M549.93,290.28c-1.31,0.68-2.44,1.56-3.39,2.65c-0.95,1.09-1.7,2.31-2.24,3.67c-0.54,1.36-0.82,2.73-0.82,4.12
			c0,1.36,0.27,2.71,0.82,4.05c0.54,1.34,1.29,2.55,2.24,3.62c0.95,1.07,2.08,1.95,3.39,2.65c1.31,0.7,2.72,1.06,4.25,1.09
			c1.42,0.07,2.78-0.06,4.07-0.38c1.29-0.32,2.65-1.03,4.07-2.11c0.64-0.51,1.33-1,2.06-1.48c0.73-0.48,1.52-0.81,2.37-0.99
			c0.85-0.19,1.74-0.18,2.67,0.03c0.93,0.2,1.91,0.75,2.93,1.63c0.68,0.61,1.18,1.31,1.5,2.09c0.32,0.78,0.47,1.6,0.46,2.47
			c-0.02,0.87-0.21,1.73-0.58,2.6c-0.37,0.87-0.93,1.67-1.68,2.42c-2.14,2.14-4.66,3.77-7.56,4.89s-5.95,1.68-9.14,1.68
			c-3.43,0-6.64-0.62-9.65-1.86c-3-1.24-5.63-2.94-7.87-5.09c-2.24-2.16-4.01-4.7-5.32-7.64c-1.31-2.94-1.96-6.12-1.96-9.55
			c0-3.39,0.65-6.58,1.96-9.57c1.31-2.99,3.08-5.58,5.32-7.79c2.24-2.21,4.86-3.95,7.87-5.22c3-1.27,6.22-1.91,9.65-1.91
			c3.22,0,6.28,0.56,9.17,1.68c2.88,1.12,5.4,2.75,7.54,4.89c0.75,0.75,1.31,1.56,1.68,2.44c0.37,0.88,0.58,1.76,0.61,2.62
			c0.03,0.87-0.12,1.69-0.46,2.47c-0.34,0.78-0.85,1.48-1.53,2.09c-1.02,0.88-1.99,1.43-2.93,1.63s-1.83,0.2-2.67,0
			c-0.85-0.2-1.64-0.54-2.37-1.02c-0.73-0.48-1.42-0.97-2.06-1.48c-1.39-1.05-2.74-1.74-4.05-2.06c-1.31-0.32-2.67-0.47-4.1-0.43
			C552.65,289.23,551.23,289.6,549.93,290.28z"/>
		<path d="M592.82,306.37c0.98,1.97,2.4,3.54,4.25,4.71c1.85,1.17,3.9,1.76,6.14,1.76c0.92,0,1.71-0.06,2.37-0.18
			s1.25-0.27,1.76-0.46s0.97-0.42,1.38-0.69s0.8-0.56,1.17-0.87c1.12-0.88,2.21-1.39,3.28-1.53c1.07-0.13,2.08-0.02,3.03,0.36
			c0.64,0.24,1.22,0.59,1.73,1.07c0.51,0.48,0.95,1.02,1.32,1.63c0.37,0.61,0.64,1.27,0.82,1.99c0.17,0.71,0.2,1.43,0.1,2.16
			c-0.1,0.73-0.34,1.45-0.71,2.16c-0.37,0.71-0.93,1.36-1.68,1.93c-0.68,0.58-1.46,1.14-2.34,1.68c-0.88,0.54-1.91,1.03-3.08,1.45
			c-1.17,0.42-2.5,0.76-4,1.02c-1.49,0.25-3.21,0.38-5.14,0.38c-3.36,0-6.52-0.64-9.47-1.91c-2.95-1.27-5.54-3-7.76-5.19
			c-2.22-2.19-3.98-4.75-5.27-7.69c-1.29-2.94-1.93-6.08-1.93-9.45c0-3.36,0.64-6.52,1.93-9.47c1.29-2.95,3.05-5.52,5.27-7.71
			c2.22-2.19,4.81-3.92,7.76-5.19s6.11-1.91,9.47-1.91c3.29,0,6.42,0.62,9.37,1.86c2.95,1.24,5.53,2.95,7.74,5.12
			c2.21,2.17,3.96,4.71,5.27,7.61c1.31,2.9,1.99,6.02,2.06,9.34c0,1.8-0.58,3.25-1.73,4.35c-1.15,1.1-2.65,1.66-4.48,1.66H592.82z
			 M614.67,295.88c-0.88-2.24-2.32-4.04-4.3-5.4c-1.99-1.36-4.3-2.04-6.95-2.04c-1.29,0-2.51,0.19-3.67,0.56
			c-1.15,0.37-2.2,0.89-3.13,1.55c-0.93,0.66-1.76,1.45-2.47,2.37s-1.27,1.9-1.68,2.95H614.67z"/>
	</g>
</g>
</svg>
